<svg width="32" height="32" viewBox="0 0 32 32" fill="none" xmlns="http://www.w3.org/2000/svg">
<path fill-rule="evenodd" clip-rule="evenodd" d="M14.6778 7.27543C12.7932 7.18255 10.3095 8.0646 7.89271 12.0575C5.00924 16.8214 4.95162 20.0895 5.74305 22.0143C6.54062 23.9539 8.25498 24.7395 9.52581 24.6194C10.9823 24.4818 11.9879 23.777 12.5855 22.7668C13.2011 21.7263 13.4268 20.2781 13.0913 18.6583C12.9734 18.089 12.6998 17.3441 12.3397 16.628C11.9739 15.9007 11.5727 15.3103 11.251 14.9938C10.8007 14.5507 10.8007 13.8325 11.251 13.3895C11.7012 12.9464 12.4313 12.9464 12.8816 13.3895C13.4577 13.9563 13.9908 14.7952 14.4065 15.6218C14.8278 16.4595 15.1827 17.3931 15.3509 18.2053C15.7756 20.2561 15.5334 22.294 14.5786 23.908C13.6059 25.5523 11.9389 26.6707 9.74627 26.8779C7.40074 27.0995 4.76315 25.6809 3.60533 22.8652C2.44138 20.0345 2.82494 15.9959 5.91138 10.8966C8.63918 6.38982 11.835 4.86365 14.7932 5.00943C17.6159 5.14853 19.8943 6.80228 20.9388 8.01509C21.6494 8.84027 22.0708 9.74442 22.3458 10.3917C22.4073 10.5366 22.4566 10.6562 22.4991 10.7592C22.519 10.8077 22.5375 10.8525 22.555 10.8944C22.6028 10.8957 22.654 10.8969 22.7087 10.8982C22.7362 10.8989 22.7643 10.8995 22.7932 10.9002C23.1893 10.9094 23.7058 10.9213 24.2346 10.9583C24.7948 10.9974 25.4233 11.0677 25.981 11.2114C26.4706 11.3376 27.2067 11.5909 27.6344 12.2052C27.8418 12.5032 27.9736 12.8975 28.0589 13.2469C28.1527 13.6309 28.2207 14.0892 28.2431 14.5898C28.2874 15.585 28.1538 16.8219 27.6078 18.0174C27.0528 19.2325 26.082 20.3774 24.5188 21.146C22.9729 21.906 20.9266 22.2601 18.2672 22.0532C17.6324 22.0038 17.1585 21.4574 17.2087 20.8329C17.2589 20.2083 17.8142 19.742 18.449 19.7914C20.8227 19.9761 22.4205 19.6413 23.4879 19.1165C24.5379 18.6002 25.1496 17.8644 25.5044 17.0874C25.8683 16.2908 25.972 15.4242 25.9392 14.6891C25.923 14.3246 25.8739 14.0111 25.8167 13.7771C25.7866 13.6538 25.7592 13.5725 25.7415 13.5252C25.6944 13.5019 25.591 13.4563 25.3968 13.4062C25.0438 13.3153 24.5809 13.257 24.0713 13.2214C23.5991 13.1884 23.1333 13.1776 22.7308 13.1682C22.7048 13.1676 22.679 13.167 22.6535 13.1664C22.4514 13.1617 22.2533 13.1566 22.0929 13.1476C22.0128 13.1431 21.9246 13.1367 21.84 13.1263C21.7831 13.1192 21.6226 13.0994 21.4551 13.0341C21.0831 12.8893 20.8776 12.6137 20.7979 12.4994C20.6986 12.3571 20.6219 12.2047 20.5659 12.0852C20.4953 11.9345 20.4119 11.7328 20.3314 11.5382C20.2923 11.4437 20.254 11.351 20.2181 11.2666C19.9678 10.6773 19.6555 10.0347 19.1793 9.48174C18.4258 8.60674 16.698 7.37498 14.6778 7.27543ZM22.1277 10.8752C22.1145 10.8735 22.1173 10.8732 22.1321 10.8757C22.1303 10.8755 22.1289 10.8753 22.1277 10.8752Z" fill="url(#paint0_linear)"/>
<path d="M17.9812 12.5439C17.9812 13.1694 17.4658 13.6765 16.83 13.6765C16.1942 13.6765 15.6788 13.1694 15.6788 12.5439C15.6788 11.9184 16.1942 11.4113 16.83 11.4113C17.4658 11.4113 17.9812 11.9184 17.9812 12.5439Z" fill="url(#paint1_linear)"/>
<defs>
<linearGradient id="paint0_linear" x1="12.0821" y1="3.7931" x2="19.6211" y2="26.9735" gradientUnits="userSpaceOnUse">
<stop stop-color="#FF765A"/>
<stop offset="1" stop-color="#FF4040"/>
</linearGradient>
<linearGradient id="paint1_linear" x1="12.0821" y1="3.7931" x2="19.6211" y2="26.9735" gradientUnits="userSpaceOnUse">
<stop stop-color="#FF765A"/>
<stop offset="1" stop-color="#FF4040"/>
</linearGradient>
</defs>
</svg>
