<svg width="316" height="77" viewBox="0 0 316 77" fill="none" xmlns="http://www.w3.org/2000/svg">
<rect x="1.5" y="22.5" width="314" height="11" rx="5.5" fill="#FFF6EE" stroke="#FBE4CF"/>
<mask id="mask0_1102_9461" style="mask-type:alpha" maskUnits="userSpaceOnUse" x="0" y="22" width="118" height="12">
<rect y="22" width="118" height="12" rx="6" fill="url(#paint0_linear_1102_9461)"/>
</mask>
<g mask="url(#mask0_1102_9461)">
<rect y="22" width="316" height="12" rx="6" fill="url(#paint1_linear_1102_9461)"/>
</g>
<g filter="url(#filter0_d_1102_9461)">
<circle cx="124.5" cy="29.5" r="20.5" fill="url(#paint2_linear_1102_9461)"/>
<circle cx="124.5" cy="29.5" r="19.9459" stroke="#E9E9E9" stroke-width="1.10811"/>
</g>
<path d="M126.221 40.2775C125.46 40.2775 124.874 40.072 124.463 39.6608C124.052 39.2496 123.846 38.6534 123.846 37.8721V36.1143H116.939C116.178 36.1143 115.571 35.9499 115.119 35.6209C114.667 35.2714 114.441 34.7472 114.441 34.0482C114.441 33.637 114.533 33.2258 114.718 32.8146C114.903 32.3829 115.232 31.8381 115.705 31.1802L123.692 19.554C124.042 19.0195 124.422 18.6289 124.833 18.3822C125.265 18.1149 125.769 17.9813 126.344 17.9813C127.023 17.9813 127.557 18.1868 127.948 18.598C128.339 18.9887 128.534 19.5849 128.534 20.3867V32.352H129.675C131.052 32.352 131.741 32.9791 131.741 34.2332C131.741 35.4873 131.052 36.1143 129.675 36.1143H128.534V37.8721C128.534 38.6534 128.328 39.2496 127.917 39.6608C127.527 40.072 126.961 40.2775 126.221 40.2775ZM123.846 32.352V25.1666L118.974 32.352H123.846Z" fill="#343434"/>
<defs>
<filter id="filter0_d_1102_9461" x="86.2703" y="0.135135" width="76.4595" height="76.4595" filterUnits="userSpaceOnUse" color-interpolation-filters="sRGB">
<feFlood flood-opacity="0" result="BackgroundImageFix"/>
<feColorMatrix in="SourceAlpha" type="matrix" values="0 0 0 0 0 0 0 0 0 0 0 0 0 0 0 0 0 0 127 0" result="hardAlpha"/>
<feOffset dy="8.86487"/>
<feGaussianBlur stdDeviation="8.86487"/>
<feColorMatrix type="matrix" values="0 0 0 0 0.2375 0 0 0 0 0.0876959 0 0 0 0 0.0860938 0 0 0 0.14 0"/>
<feBlend mode="normal" in2="BackgroundImageFix" result="effect1_dropShadow_1102_9461"/>
<feBlend mode="normal" in="SourceGraphic" in2="effect1_dropShadow_1102_9461" result="shape"/>
</filter>
<linearGradient id="paint0_linear_1102_9461" x1="118" y1="22" x2="0" y2="22" gradientUnits="userSpaceOnUse">
<stop stop-color="#30DF4C"/>
<stop offset="0.526042" stop-color="#FFD326"/>
<stop offset="1" stop-color="#FF4040"/>
</linearGradient>
<linearGradient id="paint1_linear_1102_9461" x1="316" y1="22" x2="0" y2="22" gradientUnits="userSpaceOnUse">
<stop stop-color="#30DF4C"/>
<stop offset="0.526042" stop-color="#FFD326"/>
<stop offset="1" stop-color="#FF4040"/>
</linearGradient>
<linearGradient id="paint2_linear_1102_9461" x1="118.747" y1="6.74054" x2="134.523" y2="48.8112" gradientUnits="userSpaceOnUse">
<stop stop-color="white"/>
<stop offset="1" stop-color="#EFEFEF"/>
</linearGradient>
</defs>
</svg>
